<svg xmlns="http://www.w3.org/2000/svg" width="34.072" height="34.072" viewBox="0 0 34.072 34.072">
  <path id="account_box_FILL0_wght400_GRAD0_opsz48" d="M8.839,35.482A23.751,23.751,0,0,1,15.275,31.2a18.553,18.553,0,0,1,7.761-1.633A18.553,18.553,0,0,1,30.8,31.2a23.751,23.751,0,0,1,6.436,4.283V8.839H8.839Zm14.291-9.654A6.464,6.464,0,0,0,29.661,19.3a6.464,6.464,0,0,0-6.531-6.531A6.464,6.464,0,0,0,16.6,19.3a6.464,6.464,0,0,0,6.531,6.531ZM8.839,40.072a2.724,2.724,0,0,1-1.988-.852A2.724,2.724,0,0,1,6,37.233V8.839a2.724,2.724,0,0,1,.852-1.988A2.724,2.724,0,0,1,8.839,6H37.233a2.724,2.724,0,0,1,1.988.852,2.724,2.724,0,0,1,.852,1.988V37.233a2.911,2.911,0,0,1-2.839,2.839Zm2.6-2.839H34.63v-.426a18.614,18.614,0,0,0-5.489-3.289,17.311,17.311,0,0,0-12.209,0,18.614,18.614,0,0,0-5.489,3.289v.426ZM23.131,22.989A3.716,3.716,0,0,1,19.44,19.3a3.529,3.529,0,0,1,1.088-2.626A3.7,3.7,0,0,1,25.757,21.9,3.529,3.529,0,0,1,23.131,22.989ZM23.036,22.137Z" transform="translate(-6 -6)" fill="#222"/>
</svg>
