<svg id="android-logo-svgrepo-com" xmlns="http://www.w3.org/2000/svg" width="28.829" height="34.071" viewBox="0 0 28.829 34.071">
  <g id="Group_6843" data-name="Group 6843">
    <path id="Path_20154" data-name="Path 20154" d="M44.653,179.141a2.034,2.034,0,0,0-1.495.614,2.01,2.01,0,0,0-.614,1.474v8.8a2.1,2.1,0,0,0,2.109,2.109,2,2,0,0,0,1.485-.614,2.053,2.053,0,0,0,.6-1.495v-8.8a2.1,2.1,0,0,0-2.089-2.088Z" transform="translate(-42.544 -168.105)" fill="#222"/>
    <path id="Path_20155" data-name="Path 20155" d="M136.779,3.133,138.232.451a.27.27,0,0,0-.1-.409.284.284,0,0,0-.409.123l-1.474,2.7a10.27,10.27,0,0,0-8.231,0l-1.474-2.7a.284.284,0,0,0-.409-.123.269.269,0,0,0-.1.409l1.454,2.682a8.978,8.978,0,0,0-3.522,3.143,7.939,7.939,0,0,0-1.311,4.413H141.59a7.941,7.941,0,0,0-1.311-4.413A9.015,9.015,0,0,0,136.779,3.133Zm-8.405,3.9a.768.768,0,0,1-.563.236.733.733,0,0,1-.553-.236.816.816,0,0,1,0-1.126.735.735,0,0,1,.553-.235.8.8,0,0,1,.563,1.361Zm8.63,0a.734.734,0,0,1-.553.236.8.8,0,0,1,0-1.6.736.736,0,0,1,.553.235.816.816,0,0,1,0,1.126Z" transform="translate(-117.716 0)" fill="#222"/>
    <path id="Path_20156" data-name="Path 20156" d="M123.971,199.087a2.236,2.236,0,0,0,2.252,2.252h1.515l.021,4.648a2.035,2.035,0,0,0,.614,1.495,2.011,2.011,0,0,0,1.474.614,2.1,2.1,0,0,0,2.109-2.109v-4.648h2.826v4.648a2.109,2.109,0,1,0,4.217,0v-4.648h1.536a2.236,2.236,0,0,0,2.232-2.252V185.45h-18.8Z" transform="translate(-118.955 -174.025)" fill="#222"/>
    <path id="Path_20157" data-name="Path 20157" d="M444.464,179.141a2.029,2.029,0,0,0-1.474.6,2,2,0,0,0-.614,1.484v8.8a2.033,2.033,0,0,0,.614,1.495,2.011,2.011,0,0,0,1.474.614,2.1,2.1,0,0,0,2.109-2.109v-8.8a2,2,0,0,0-.614-1.484A2.054,2.054,0,0,0,444.464,179.141Z" transform="translate(-417.744 -168.105)" fill="#222"/>
  </g>
</svg>
