<svg xmlns="http://www.w3.org/2000/svg" width="29.277" height="34.071" viewBox="0 0 29.277 34.071">
  <path id="icons8-apple-logo" d="M34.277,26a24.465,24.465,0,0,1-2.21,4.132c-1.438,2.187-3.466,4.919-5.972,4.936-2.231.02-2.806-1.455-5.836-1.429s-3.657,1.458-5.891,1.435C11.86,35.048,9.942,32.589,8.5,30.4,4.482,24.279,4.057,17.1,6.542,13.279a8.9,8.9,0,0,1,7.152-4.3c2.662,0,4.334,1.461,6.533,1.461,2.135,0,3.434-1.464,6.513-1.464a8.693,8.693,0,0,1,6.545,3.455A7.492,7.492,0,0,0,34.277,26ZM24.4,6.532A7.463,7.463,0,0,0,26.063,1a8.076,8.076,0,0,0-5.208,2.8,6.942,6.942,0,0,0-1.7,5.4A6.791,6.791,0,0,0,24.4,6.532Z" transform="translate(-5 -1)" fill="#222"/>
</svg>
