<svg xmlns="http://www.w3.org/2000/svg" width="34.071" height="34.072" viewBox="0 0 34.071 34.072">
  <path id="check_circle_FILL0_wght400_GRAD0_opsz48" d="M18.523,24.911l-4.174-4.174a1.275,1.275,0,0,0-.937-.383,1.457,1.457,0,0,0-1.405,1.405,1.213,1.213,0,0,0,.426.937l5.2,5.2a1.235,1.235,0,0,0,1.789,0L29.639,17.671A1.2,1.2,0,0,0,30,16.734a1.352,1.352,0,0,0-.4-.937,1.236,1.236,0,0,0-.958-.426,1.37,1.37,0,0,0-1,.426Zm2.513,13.16a17.279,17.279,0,0,1-6.729-1.3A16.488,16.488,0,0,1,5.3,27.765,17.279,17.279,0,0,1,4,21.036a17.168,17.168,0,0,1,1.3-6.687A16.626,16.626,0,0,1,8.9,8.94,16.984,16.984,0,0,1,21.036,4,16.9,16.9,0,0,1,38.071,21.036a16.984,16.984,0,0,1-4.94,12.138,16.627,16.627,0,0,1-5.409,3.6A17.168,17.168,0,0,1,21.036,38.071ZM21.036,21.036Zm0,14.48a14.188,14.188,0,0,0,14.48-14.48,14.188,14.188,0,0,0-14.48-14.48,14.188,14.188,0,0,0-14.48,14.48,14.188,14.188,0,0,0,14.48,14.48Z" transform="translate(-4 -4)" fill="#222"/>
</svg>
