<svg id="edit" xmlns="http://www.w3.org/2000/svg" width="34.072" height="34.072" viewBox="0 0 34.072 34.072">
  <path id="Path_20162" data-name="Path 20162" d="M24.387,1.3,7.078,18.61A7.05,7.05,0,0,0,5,23.629v1.907a1.42,1.42,0,0,0,1.42,1.42H8.326a7.05,7.05,0,0,0,5.019-2.078L30.654,7.568a4.436,4.436,0,0,0,0-6.266,4.534,4.534,0,0,0-6.266,0Zm4.259,4.259L11.337,22.869a4.287,4.287,0,0,1-3.011,1.246H7.839v-.487a4.287,4.287,0,0,1,1.246-3.011L26.395,3.309a1.63,1.63,0,0,1,2.252,0,1.594,1.594,0,0,1,0,2.252Z" transform="translate(2.098 0.019)" fill="#222"/>
  <path id="Path_20163" data-name="Path 20163" d="M32.653,12.747a1.42,1.42,0,0,0-1.42,1.42V21.3H25.554A4.259,4.259,0,0,0,21.3,25.554v5.679H7.1a4.259,4.259,0,0,1-4.259-4.259V7.1A4.259,4.259,0,0,1,7.1,2.839H19.935a1.42,1.42,0,1,0,0-2.839H7.1A7.107,7.107,0,0,0,0,7.1V26.974a7.107,7.107,0,0,0,7.1,7.1H23.2a7.053,7.053,0,0,0,5.02-2.078l3.771-3.774a7.053,7.053,0,0,0,2.08-5.019V14.167A1.42,1.42,0,0,0,32.653,12.747ZM26.214,29.986a4.224,4.224,0,0,1-2.08,1.136V25.554a1.42,1.42,0,0,1,1.42-1.42h5.572a4.282,4.282,0,0,1-1.136,2.078Z" fill="#222"/>
</svg>
