<svg xmlns="http://www.w3.org/2000/svg" width="34.073" height="34.073" viewBox="0 0 34.073 34.073">
  <path id="equalizer_FILL0_wght100_GRAD0_opsz48" d="M12.255,43.373A2.873,2.873,0,0,1,9.3,40.418V30.8a2.873,2.873,0,0,1,2.955-2.955A2.873,2.873,0,0,1,15.211,30.8v9.619a2.873,2.873,0,0,1-2.955,2.955Zm14.081,0a2.873,2.873,0,0,1-2.955-2.955V12.255a2.956,2.956,0,1,1,5.911,0V40.418a2.873,2.873,0,0,1-2.955,2.955Zm14.081,0a2.873,2.873,0,0,1-2.955-2.955V23.845a2.956,2.956,0,1,1,5.911,0V40.418a2.873,2.873,0,0,1-2.955,2.955Z" transform="translate(-9.3 -9.3)" fill="#222"/>
</svg>
