<svg xmlns="http://www.w3.org/2000/svg" width="34.072" height="22.043" viewBox="0 0 34.072 22.043">
  <path id="group_add_FILL0_wght400_GRAD0_opsz48" d="M16.823,19.419a8.225,8.225,0,0,0,1.366-2.342,8.109,8.109,0,0,0,.444-2.8,8.109,8.109,0,0,0-.444-2.8,8.225,8.225,0,0,0-1.366-2.342,5.749,5.749,0,0,1,4.738.816,4.917,4.917,0,0,1,2.041,4.33,4.917,4.917,0,0,1-2.041,4.33A5.749,5.749,0,0,1,16.823,19.419Zm6.885,11.57a.886.886,0,0,0,.568-.373,1.292,1.292,0,0,0,.213-.763v-2.2a6.513,6.513,0,0,0-.923-3.372,7,7,0,0,0-3.194-2.626q6.14.781,8.394,2.271a4.374,4.374,0,0,1,2.254,3.727v2.271a1.032,1.032,0,0,1-1.065,1.065Zm5.75-10.257a1.032,1.032,0,0,1-1.065-1.065V17.183H25.909a1.065,1.065,0,1,1,0-2.13h2.484V12.569a1.065,1.065,0,1,1,2.13,0v2.484h2.484a1.065,1.065,0,1,1,0,2.13H30.523v2.484a1.032,1.032,0,0,1-1.065,1.065ZM11.18,19.6a5.106,5.106,0,0,1-5.324-5.324A5.106,5.106,0,0,1,11.18,8.949,5.106,5.106,0,0,1,16.5,14.273,5.106,5.106,0,0,1,11.18,19.6ZM1.065,30.989A1.032,1.032,0,0,1,0,29.925V27.653a4.091,4.091,0,0,1,2.413-3.762,28.09,28.09,0,0,1,4.561-1.633,17.428,17.428,0,0,1,4.206-.5,17.211,17.211,0,0,1,4.188.5,28.358,28.358,0,0,1,4.543,1.633A4.144,4.144,0,0,1,21.686,25.4a3.974,3.974,0,0,1,.674,2.254v2.271A1.032,1.032,0,0,1,21.3,30.989ZM11.18,17.467a3.1,3.1,0,0,0,3.194-3.194,3.1,3.1,0,0,0-3.194-3.194,3.1,3.1,0,0,0-3.194,3.194,3.1,3.1,0,0,0,3.194,3.194ZM2.13,28.86h18.1V27.653a2.111,2.111,0,0,0-.284-1.065,1.926,1.926,0,0,0-.887-.781,21.916,21.916,0,0,0-4.153-1.526,16.683,16.683,0,0,0-3.727-.39,16.446,16.446,0,0,0-3.709.39,23.782,23.782,0,0,0-4.206,1.526,1.859,1.859,0,0,0-.834.763,2.109,2.109,0,0,0-.3,1.083ZM11.18,14.273ZM11.18,28.86Z" transform="translate(0 -8.946)" fill="#222"/>
</svg>
