<svg xmlns="http://www.w3.org/2000/svg" width="34.072" height="34.138" viewBox="0 0 34.072 34.138">
  <g id="Group_1088" data-name="Group 1088" transform="translate(0 0)">
    <path id="Path_420" data-name="Path 420" d="M-276.232-863.659c-.155.127-.352.08-.527.12a5.338,5.338,0,0,0-4.2,5.1c-.022.922-.014,1.844,0,2.767a1.329,1.329,0,0,0,1.319,1.351,1.33,1.33,0,0,0,1.343-1.361c.01-.833,0-1.667,0-2.5a2.679,2.679,0,0,1,2.809-2.8q6.551,0,13.1,0a2.681,2.681,0,0,1,2.824,2.822q0,11.585,0,23.169a2.677,2.677,0,0,1-2.8,2.811q-6.567,0-13.134,0a2.68,2.68,0,0,1-2.8-2.815c0-.8,0-1.6,0-2.4a1.345,1.345,0,0,0-1.323-1.449,1.336,1.336,0,0,0-1.34,1.462,30.062,30.062,0,0,0,.063,3.329,5.346,5.346,0,0,0,4.48,4.478,6.973,6.973,0,0,0,.9.063q6.6,0,13.2,0a5.333,5.333,0,0,0,5.14-3.62,5.311,5.311,0,0,0,.286-1.766q0-11.684,0-23.369a5.331,5.331,0,0,0-4.335-5.29c-.088-.018-.208.031-.262-.091Z" transform="translate(290.967 863.659)" fill="#222"/>
    <path id="Path_421" data-name="Path 421" d="M-64.465-686.624a4.839,4.839,0,0,1-1.5,2.223c-.811.775-1.585,1.587-2.387,2.373a1.3,1.3,0,0,1-1.59.234,1.327,1.327,0,0,1-.658-1.44,1.452,1.452,0,0,1,.451-.76c.66-.656,1.319-1.313,2.038-2.03h-.42q-7.714,0-15.428,0a1.436,1.436,0,0,1-1.144-.431,1.267,1.267,0,0,1-.264-1.391,1.287,1.287,0,0,1,1.108-.837,3.176,3.176,0,0,1,.4-.01H-68.2c.005-.133-.1-.173-.166-.237-.625-.632-1.268-1.246-1.878-1.892a1.323,1.323,0,0,1,.668-2.24,1.219,1.219,0,0,1,1.168.328q1.612,1.592,3.2,3.21a3.668,3.668,0,0,1,.74,1.43Z" transform="translate(85.472 704.492)" fill="#222"/>
  </g>
</svg>
