<svg xmlns="http://www.w3.org/2000/svg" width="34.071" height="34.071" viewBox="0 0 34.071 34.071" fill="#000">
  <path id="language_FILL0_wght400_GRAD0_opsz48" d="M21.036,38.071a16.694,16.694,0,0,1-6.686-1.342A17.2,17.2,0,0,1,8.94,33.088a16.85,16.85,0,0,1-3.62-5.43A17.082,17.082,0,0,1,4,20.95a16.773,16.773,0,0,1,1.32-6.665A16.974,16.974,0,0,1,8.94,8.9a16.626,16.626,0,0,1,5.409-3.6A17.168,17.168,0,0,1,21.036,4a17.168,17.168,0,0,1,6.686,1.3,16.626,16.626,0,0,1,5.409,3.6,16.974,16.974,0,0,1,3.62,5.388,16.773,16.773,0,0,1,1.32,6.665,17.082,17.082,0,0,1-1.32,6.708,16.851,16.851,0,0,1-3.62,5.43,17.2,17.2,0,0,1-5.409,3.641A16.7,16.7,0,0,1,21.036,38.071Zm0-2.47a14.175,14.175,0,0,0,2.491-3.514,21.153,21.153,0,0,0,1.64-4.706h-8.22a21.6,21.6,0,0,0,1.6,4.6A14.514,14.514,0,0,0,21.036,35.6Zm-3.62-.511A20.362,20.362,0,0,1,15.584,31.6a25.513,25.513,0,0,1-1.278-4.216H7.918a15.274,15.274,0,0,0,3.748,4.749A18.713,18.713,0,0,0,17.416,35.09Zm7.283-.043a17.052,17.052,0,0,0,5.515-2.939,15.253,15.253,0,0,0,3.939-4.727H27.807a30.853,30.853,0,0,1-1.3,4.174A19.332,19.332,0,0,1,24.7,35.047ZM7.066,24.826h6.772q-.128-1.15-.149-2.066t-.021-1.81q0-1.065.043-1.9t.17-1.853H7.066a12.419,12.419,0,0,0-.4,1.831,14.925,14.925,0,0,0-.106,1.917,16.5,16.5,0,0,0,.106,1.98,12.006,12.006,0,0,0,.4,1.9Zm9.412,0h9.157q.17-1.32.213-2.151t.043-1.725q0-.852-.043-1.64T25.635,17.2H16.479q-.17,1.32-.213,2.108t-.043,1.64q0,.894.043,1.725t.213,2.151Zm11.712,0H35a12.005,12.005,0,0,0,.4-1.9,16.5,16.5,0,0,0,.106-1.98,14.925,14.925,0,0,0-.106-1.917A12.419,12.419,0,0,0,35,17.2H28.233q.128,1.491.17,2.279t.043,1.469q0,.937-.064,1.767t-.192,2.108Zm-.426-10.179h6.388A13.8,13.8,0,0,0,30.3,9.75a14.686,14.686,0,0,0-5.643-2.768,18.564,18.564,0,0,1,1.81,3.407,27.7,27.7,0,0,1,1.3,4.259Zm-10.818,0h8.262a16.611,16.611,0,0,0-1.576-4.365,17.423,17.423,0,0,0-2.6-3.727,9.365,9.365,0,0,0-2.3,3.024A27.5,27.5,0,0,0,16.947,14.647Zm-9.029,0h6.431a23.972,23.972,0,0,1,1.192-4.11,20.219,20.219,0,0,1,1.831-3.514,14.051,14.051,0,0,0-9.455,7.623Z" transform="translate(-4 -4)"/>
</svg>
