<svg xmlns="http://www.w3.org/2000/svg" width="34.072" height="41.952" viewBox="0 0 34.072 41.952">
  <path id="location_on_FILL0_wght400_GRAD0_opsz48" d="M25.036,24.763A3.727,3.727,0,0,0,27.671,18.4,3.727,3.727,0,0,0,22.4,23.671,3.591,3.591,0,0,0,25.036,24.763Zm0,17.622A62.353,62.353,0,0,0,35.5,30.7q3.381-5.244,3.381-9.237a13.858,13.858,0,0,0-4.019-10.275,13.407,13.407,0,0,0-9.822-3.993,13.407,13.407,0,0,0-9.822,3.993,13.858,13.858,0,0,0-4.019,10.275q0,3.993,3.46,9.237A67.709,67.709,0,0,0,25.036,42.385Zm.053,3.567a2.176,2.176,0,0,1-.692-.106,1.885,1.885,0,0,1-.586-.319A67.9,67.9,0,0,1,11.94,32.589Q8,26.626,8,21.462q0-7.986,5.137-12.724a17.309,17.309,0,0,1,23.8,0q5.137,4.738,5.137,12.724,0,5.164-3.94,11.127A67.9,67.9,0,0,1,26.261,45.526a1.974,1.974,0,0,1-.559.319A1.778,1.778,0,0,1,25.089,45.951ZM25.036,21.462Z" transform="translate(-8 -4)" fill="#222"/>
</svg>
