<svg xmlns="http://www.w3.org/2000/svg" width="34.072" height="27.258" viewBox="0 0 34.072 27.258">
  <path id="mail_FILL0_wght400_GRAD0_opsz48" d="M6.555,35.258a2.452,2.452,0,0,1-1.789-.767A2.452,2.452,0,0,1,4,32.7V10.555a2.452,2.452,0,0,1,.767-1.789A2.452,2.452,0,0,1,6.555,8H35.517a2.62,2.62,0,0,1,2.555,2.555V32.7a2.62,2.62,0,0,1-2.555,2.555ZM35.517,12.9l-13.8,9.029q-.17.085-.319.149a1.058,1.058,0,0,1-.724,0q-.149-.064-.319-.149L6.555,12.9V32.7H35.517ZM21.036,19.84l14.31-9.285H6.768ZM6.555,12.9v0Z" transform="translate(-4 -8)" fill="#222"/>
</svg>
