<svg xmlns="http://www.w3.org/2000/svg" width="34.525" height="27.62" viewBox="0 0 34.525 27.62">
  <path id="movie_FILL0_wght400_GRAD0_opsz48" d="M6.589,8l3.194,6.56h5.61L12.2,8h3.841l3.194,6.56h5.61L21.651,8h3.841l3.194,6.56H34.3L31.1,8h4.834a2.655,2.655,0,0,1,2.589,2.589V33.031a2.655,2.655,0,0,1-2.589,2.589H6.589a2.484,2.484,0,0,1-1.813-.777A2.484,2.484,0,0,1,4,33.031V10.589a2.484,2.484,0,0,1,.777-1.813A2.484,2.484,0,0,1,6.589,8Zm0,9.149V33.031H35.936V17.149Zm0,0v0Z" transform="translate(-4 -8)" fill="#222"/>
</svg>
