<svg xmlns="http://www.w3.org/2000/svg" width="34.09" height="34.071" viewBox="0 0 34.09 34.071">
  <path id="Path_20158" data-name="Path 20158" d="M100,564.4H82.474c-2.8,0-5.6-.006-8.393,0a3.92,3.92,0,0,0-3.859,2.992,7.977,7.977,0,0,0-.091,2.445,1.278,1.278,0,0,0,1.351,1.109,1.311,1.311,0,0,0,1.24-1.24c.019-.409,0-.82,0-1.229a1.324,1.324,0,0,1,1.474-1.459q12.939,0,25.874,0a1.328,1.328,0,0,1,1.476,1.461c0,1.57-.012,3.14.01,4.708,0,.337-.1.388-.408.388q-7.411-.013-14.82-.006-7.349,0-14.7,0a1.341,1.341,0,0,0-1.53,1.529q0,9.622,0,19.244a3.93,3.93,0,0,0,4.1,4.122q3.725,0,7.452,0a1.351,1.351,0,0,0,1.545-1.555q0-10.154-.009-20.309c0-.338.077-.419.418-.419q8.761.018,17.522,0c.338,0,.421.075.419.418q-.018,8.823-.009,17.647c0,1.121-.472,1.6-1.583,1.6q-6.327,0-12.651,0a1.52,1.52,0,0,0-1,.291,1.3,1.3,0,0,0-.418,1.436,1.315,1.315,0,0,0,1.323.9q6.387,0,12.773,0a3.939,3.939,0,0,0,4.174-4.177q0-12.857,0-25.713A3.94,3.94,0,0,0,100,564.4ZM80.2,595.861c-1.991-.016-3.983-.007-5.973-.009a1.33,1.33,0,0,1-1.5-1.476q0-8.9-.007-17.8c0-.288.044-.388.368-.385q3.579.024,7.16,0c.3,0,.346.091.346.365-.01,3.165-.006,6.329-.006,9.494,0,3.137-.006,6.275.007,9.411C80.6,595.774,80.525,595.864,80.2,595.861Z" transform="translate(-70.081 -564.403)" fill="#222"/>
</svg>
