<svg xmlns="http://www.w3.org/2000/svg" width="33.315" height="34.071" viewBox="0 0 33.315 34.071">
  <path id="settings_FILL0_wght400_GRAD0_opsz48" d="M23.913,38.071H18.291a1.269,1.269,0,0,1-.83-.3,1.253,1.253,0,0,1-.447-.767l-.681-4.3a11.412,11.412,0,0,1-1.7-.809,11.7,11.7,0,0,1-1.576-1.065L9.092,32.662a1.266,1.266,0,0,1-.937.064,1.235,1.235,0,0,1-.724-.618L4.62,27.126a1.107,1.107,0,0,1-.128-.894A1.42,1.42,0,0,1,5,25.465l3.663-2.683a5.063,5.063,0,0,1-.106-.873q-.021-.49-.021-.873t.021-.873a5.063,5.063,0,0,1,.106-.873L5,16.606a1.42,1.42,0,0,1-.511-.767,1.107,1.107,0,0,1,.128-.894L7.431,9.962a1.235,1.235,0,0,1,.724-.618,1.266,1.266,0,0,1,.937.064l3.961,1.831a11.7,11.7,0,0,1,1.576-1.065,8.813,8.813,0,0,1,1.7-.767l.681-4.344a1.253,1.253,0,0,1,.447-.767,1.269,1.269,0,0,1,.83-.3h5.622a1.269,1.269,0,0,1,.83.3,1.253,1.253,0,0,1,.447.767l.681,4.3a13.808,13.808,0,0,1,1.725.788,7.331,7.331,0,0,1,1.555,1.086l3.961-1.831a1.266,1.266,0,0,1,.937-.064,1.235,1.235,0,0,1,.724.618l2.811,4.94a1.217,1.217,0,0,1,.149.916,1.262,1.262,0,0,1-.532.788l-3.663,2.6a6,6,0,0,1,.106.916q.021.49.021.916t-.021.894a5.93,5.93,0,0,1-.106.894L37.2,25.465a1.42,1.42,0,0,1,.511.767,1.107,1.107,0,0,1-.128.894l-2.811,4.983a1.235,1.235,0,0,1-.724.618,1.266,1.266,0,0,1-.937-.064l-3.961-1.831A14.128,14.128,0,0,1,27.6,31.917a7.421,7.421,0,0,1-1.725.788l-.681,4.3a1.253,1.253,0,0,1-.447.767,1.269,1.269,0,0,1-.83.3ZM21.1,26.572a5.526,5.526,0,0,0,5.537-5.537A5.526,5.526,0,0,0,21.1,15.5a5.526,5.526,0,0,0-5.537,5.537A5.526,5.526,0,0,0,21.1,26.572Zm0-2.555a2.981,2.981,0,0,1-2.108-5.089,2.981,2.981,0,0,1,4.216,4.216A2.873,2.873,0,0,1,21.1,24.017ZM21.1,21.036Zm-1.874,14.48h3.748l.6-4.77a10.044,10.044,0,0,0,2.662-1.065,10.916,10.916,0,0,0,2.279-1.746l4.514,1.959,1.7-3.066-4-2.939q.17-.724.277-1.427a9.511,9.511,0,0,0,.106-1.427,11.847,11.847,0,0,0-.085-1.427,8.813,8.813,0,0,0-.3-1.427l4-2.939-1.7-3.066-4.514,1.959A9.494,9.494,0,0,0,26.3,12.284a7.183,7.183,0,0,0-2.726-.958l-.6-4.77H19.228l-.6,4.77a9.024,9.024,0,0,0-2.7,1.022,9.393,9.393,0,0,0-2.236,1.789L9.177,12.177l-1.7,3.066,4,2.939q-.17.724-.277,1.427a9.612,9.612,0,0,0,0,2.853q.106.7.277,1.427l-4,2.939,1.7,3.066,4.514-1.959a10.916,10.916,0,0,0,2.279,1.746,10.044,10.044,0,0,0,2.662,1.065Z" transform="translate(-4.45 -4)" fill="#222"/>
</svg>
