<svg xmlns="http://www.w3.org/2000/svg" width="34.073" height="34.605" viewBox="0 0 34.073 34.605">
  <path id="shopping_cart_FILL0_wght400_GRAD0_opsz48" d="M12.771,38.605a3.118,3.118,0,1,1,2.187-5.327,2.972,2.972,0,0,1,.931,2.209,3.105,3.105,0,0,1-3.118,3.118Zm17.324,0a3.118,3.118,0,1,1,2.187-5.327,2.972,2.972,0,0,1,.931,2.209A3.105,3.105,0,0,1,30.1,38.605ZM10.519,10.02,15.283,19.9H27.757l5.414-9.875ZM12.338,29.6a2.907,2.907,0,0,1-2.62-1.213,2.492,2.492,0,0,1,.022-2.729l2.772-5.111L5.928,6.6H3.806a1.177,1.177,0,0,1-.888-.39,1.336,1.336,0,0,1-.368-.953,1.21,1.21,0,0,1,.368-.888A1.262,1.262,0,0,1,3.849,4H6.794a1.253,1.253,0,0,1,.693.195,1.34,1.34,0,0,1,.476.541L9.22,7.422H34.73q1.386,0,1.754.845a2.02,2.02,0,0,1-.238,1.884L30.4,20.675a4.07,4.07,0,0,1-1.213,1.278,2.9,2.9,0,0,1-1.689.541H14.374L11.948,27h20.01a1.177,1.177,0,0,1,.888.39,1.283,1.283,0,0,1,.368.91,1.259,1.259,0,0,1-1.3,1.3Zm2.945-9.7h0Z" transform="translate(-2.55 -4)" fill="#222"/>
</svg>
