<svg xmlns="http://www.w3.org/2000/svg" width="33.316" height="24.313" viewBox="0 0 33.316 24.313">
  <path id="stadia_controller_FILL0_wght400_GRAD0_opsz48" d="M7.684,32.313a5.166,5.166,0,0,1-3.951-1.671A5.864,5.864,0,0,1,2.1,26.728q0-.3.038-.684a4.8,4.8,0,0,1,.114-.684L5.443,12.6A6.054,6.054,0,0,1,7.627,9.292,5.864,5.864,0,0,1,11.331,8H26.147a5.864,5.864,0,0,1,3.7,1.292A6.054,6.054,0,0,1,32.035,12.6l3.191,12.764q.076.342.133.7a4.5,4.5,0,0,1,.057.7,5.546,5.546,0,0,1-5.622,5.546,5.579,5.579,0,0,1-2.963-.836A5.254,5.254,0,0,1,24.779,29.2l-1.064-2.2a1.143,1.143,0,0,0-.551-.589,1.885,1.885,0,0,0-.817-.171H15.13a1.885,1.885,0,0,0-.817.171,1.143,1.143,0,0,0-.551.589L12.7,29.2a5.254,5.254,0,0,1-2.051,2.279,5.579,5.579,0,0,1-2.963.836ZM7.8,30.033a3.194,3.194,0,0,0,2.887-1.823l1.064-2.165a3.7,3.7,0,0,1,3.381-2.089h7.218a3.658,3.658,0,0,1,1.975.57,4.157,4.157,0,0,1,1.444,1.52l1.064,2.165a3.194,3.194,0,0,0,2.887,1.823,3.436,3.436,0,0,0,2.317-.893A3.063,3.063,0,0,0,33.1,26.8q0-.19-.019-.437a1.975,1.975,0,0,0-.095-.475L29.794,13.166a3.692,3.692,0,0,0-3.647-2.887H11.331a3.692,3.692,0,0,0-3.647,2.887L4.493,25.893q-.038.152-.114.874a2.959,2.959,0,0,0,1.064,2.355,3.535,3.535,0,0,0,2.355.912Zm13.22-11.776a1.093,1.093,0,0,1-.8-.342,1.137,1.137,0,0,1-.342-.836,1.033,1.033,0,0,1,.342-.779,1.172,1.172,0,0,1,.836-.323,1.061,1.061,0,0,1,.779.323,1.107,1.107,0,0,1,.323.817,1.125,1.125,0,0,1-.323.8A1.075,1.075,0,0,1,21.018,18.257Zm3.039-3.039a1.093,1.093,0,0,1-.8-.342,1.137,1.137,0,0,1-.342-.836,1.033,1.033,0,0,1,.342-.779,1.172,1.172,0,0,1,.836-.323,1.061,1.061,0,0,1,.779.323,1.107,1.107,0,0,1,.323.817,1.125,1.125,0,0,1-.323.8A1.075,1.075,0,0,1,24.057,15.218Zm0,6.078a1.093,1.093,0,0,1-.8-.342,1.137,1.137,0,0,1-.342-.836,1.033,1.033,0,0,1,.342-.779,1.172,1.172,0,0,1,.836-.323,1.061,1.061,0,0,1,.779.323,1.107,1.107,0,0,1,.323.817,1.125,1.125,0,0,1-.323.8A1.075,1.075,0,0,1,24.057,21.3ZM27.1,18.257a1.093,1.093,0,0,1-.8-.342,1.137,1.137,0,0,1-.342-.836A1.033,1.033,0,0,1,26.3,16.3a1.172,1.172,0,0,1,.836-.323,1.061,1.061,0,0,1,.779.323,1.107,1.107,0,0,1,.323.817,1.125,1.125,0,0,1-.323.8A1.075,1.075,0,0,1,27.1,18.257ZM13.421,20.726a.974.974,0,0,1-.95-.95V18.067H10.761a.95.95,0,0,1,0-1.9h1.709V14.458a.95.95,0,0,1,1.9,0v1.709H16.08a.95.95,0,0,1,0,1.9H14.37v1.709a.974.974,0,0,1-.95.95Z" transform="translate(-2.1 -8)" fill="#222"/>
</svg>
