<svg xmlns="http://www.w3.org/2000/svg" xmlns:xlink="http://www.w3.org/1999/xlink" width="49.498" height="65" viewBox="0 0 49.498 65">
  <defs>
    <linearGradient id="linear-gradient" x1="0.117" x2="1" y2="0.947" gradientUnits="objectBoundingBox">
      <stop offset="0" stopColor="#ff3656"/>
      <stop offset="1" stopColor="#ff675e"/>
    </linearGradient>
  </defs>
  <g id="Group_6903" data-name="Group 6903" transform="translate(317.19 -39.54)">
    <path id="Path_20164" data-name="Path 20164" d="M-283.215,61.637a7.666,7.666,0,0,1,2.84-.21c.547.016.673-.148.672-.681-.018-5.615-.044-11.23,0-16.843a4.269,4.269,0,0,0-4.328-4.361q-14.41.055-28.822,0a4.23,4.23,0,0,0-4.341,4.405q.027,28.106.009,56.21a5.133,5.133,0,0,0,.174,1.418,4.071,4.071,0,0,0,4.3,2.959q12.562.005,25.125,0c1.325,0,2.648.026,3.971-.024a4.015,4.015,0,0,0,3.887-4.047c.022-2.784,0-5.567.016-8.353,0-.463-.1-.63-.595-.617a6.127,6.127,0,0,1-2.991-.342,7.273,7.273,0,0,0,.007.968c.081.54-.15.626-.642.626q-14.514-.022-29.027,0c-.523,0-.628-.137-.628-.639q.022-21.122,0-42.242c0-.5.1-.657.631-.655q14.512.025,29.027,0c.514,0,.646.134.642.646-.024,3.675-.015,7.348-.009,11.023A1.489,1.489,0,0,0-283.215,61.637Zm-18.428,36.411q3.179-.008,6.356,0c.739,0,1.217.4,1.2.994s-.48.955-1.239.959c-1.049,0-2.1,0-3.144,0s-2.1,0-3.142,0c-.754-.005-1.215-.392-1.2-.994C-302.8,98.428-302.351,98.051-301.643,98.049Zm5.648-52.685c-.844.013-1.687,0-2.531,0-.8,0-1.6.009-2.394,0a1,1,0,0,1-1.1-.952,1,1,0,0,1,1.12-1q2.463-.014,4.923,0c.688,0,1.074.359,1.087.952C-294.878,44.986-295.266,45.352-295.995,45.363Z" fill="url(#linear-gradient)"/>
    <path id="Path_20165" data-name="Path 20165" d="M-163.367,182.308c0-1.232-.258-1.57-1.477-1.625a2.173,2.173,0,0,1-2.277-1.627,2.135,2.135,0,0,1,.34-2.606,1.569,1.569,0,0,0,.577-1.235.586.586,0,0,0-.176-.533c-.615-.642-1.226-1.292-1.891-1.88a.938.938,0,0,0-1.257.04,12.47,12.47,0,0,0-1.173.943.831.831,0,0,1-1.175.146,6.3,6.3,0,0,0-1.57-.631.73.73,0,0,1-.635-.712c-.066-.562-.172-1.124-.289-1.678a1.059,1.059,0,0,0-1.166-.921c-.706.013-1.415,0-2.121,0a1.059,1.059,0,0,0-1.12.977,6.538,6.538,0,0,0-.141,1.356.957.957,0,0,1-.836,1.094c-.688.19-1.363.814-1.988.745s-1.2-.756-1.806-1.164a1.048,1.048,0,0,0-1.429.119c-.527.505-1.047,1.019-1.548,1.55a1.048,1.048,0,0,0-.084,1.482,3.975,3.975,0,0,0,.514.637,1.486,1.486,0,0,1,.282,2.255,1.193,1.193,0,0,0-.225.564c-.081.873-.633,1.118-1.409,1.193-2.31.227-2.033.672-2.031,2.4,0,2.059,0,2.074,2.046,2.269.745.071,1.321.221,1.444,1.126a3.225,3.225,0,0,0,.551,1.235.686.686,0,0,1-.059.961,4.854,4.854,0,0,0-.361.5c-1.149,1.625-1.149,1.625.265,3.044,1.5,1.5,1.528,1.537,3.155.163.613-.52,1.051-.415,1.77-.236a2.584,2.584,0,0,1,2.158,2.809,1.048,1.048,0,0,0,1.138,1.036c.706.031,1.417.033,2.123,0a1.081,1.081,0,0,0,1.144-1.036,10.686,10.686,0,0,0,.156-1.356c-.007-.652.291-.9.9-1.069.664-.178,1.314-.824,1.9-.749.641.081,1.2.767,1.8,1.171a1.1,1.1,0,0,0,1.488-.143c.2-.189.386-.388.58-.582,1.642-1.642,1.658-1.656.2-3.424a1.094,1.094,0,0,1-.179-1.475c.351-.593.357-1.5.827-1.883s1.34-.3,2.033-.43a1.153,1.153,0,0,0,1.023-1.245C-163.36,183.359-163.367,182.833-163.367,182.308Zm-12.815,5.079a4.332,4.332,0,0,1-4.59-4.284,4.316,4.316,0,0,1,4.257-4.409,4.354,4.354,0,0,1,4.427,4.111A4.364,4.364,0,0,1-176.182,187.387Z" transform="translate(-104.328 -106.575)" fill="url(#linear-gradient)"/>
    <path id="Path_20166" data-name="Path 20166" d="M-237.743,122.57a1.013,1.013,0,0,1-.88-1.515c.773-1.984,1.564-3.961,2.349-5.941q1.716-4.327,3.433-8.653c.154-.39.332-.768.782-.874a1.01,1.01,0,0,1,1.013.249,1.027,1.027,0,0,1,.223,1.14c-.293.785-.618,1.559-.928,2.338q-2.462,6.191-4.919,12.384C-236.871,122.208-237.143,122.579-237.743,122.57Z" transform="translate(-64.102 -53.927)" fill="url(#linear-gradient)"/>
    <path id="Path_20167" data-name="Path 20167" d="M-276.455,122.924a1.12,1.12,0,0,1,.966.677,1,1,0,0,1-.289,1.173c-.959.975-1.888,1.985-2.9,2.9-.543.491-.444.75.028,1.19.949.886,1.843,1.832,2.754,2.759.609.619.661,1.191.165,1.662-.474.45-1.022.391-1.609-.2q-1.98-1.985-3.948-3.984a1.056,1.056,0,0,1-.023-1.669c1.34-1.368,2.7-2.72,4.042-4.083A1.391,1.391,0,0,1-276.455,122.924Z" transform="translate(-28.987 -68.123)" fill="url(#linear-gradient)"/>
    <path id="Path_20168" data-name="Path 20168" d="M-181.272,122.966a1.235,1.235,0,0,1,.846.4c1.363,1.376,2.733,2.745,4.086,4.131a1.017,1.017,0,0,1-.022,1.614q-2.008,2.052-4.04,4.08a1.007,1.007,0,0,1-1.56.1,1.052,1.052,0,0,1,.11-1.57c.956-.977,1.9-1.972,2.9-2.9.482-.445.4-.689-.026-1.092-1.007-.957-1.964-1.966-2.945-2.95a1.035,1.035,0,0,1-.248-1.191A1.056,1.056,0,0,1-181.272,122.966Z" transform="translate(-110.231 -68.158)" fill="url(#linear-gradient)"/>
  </g>
</svg>
