<svg xmlns="http://www.w3.org/2000/svg" xmlns:xlink="http://www.w3.org/1999/xlink" width="61.898" height="65" viewBox="0 0 61.898 65">
  <defs>
    <linearGradient id="linear-gradient" x1="-0.545" y1="-0.433" x2="0.708" y2="0.737" gradientUnits="objectBoundingBox">
      <stop offset="0" stopColor="#ff3756"/>
      <stop offset="1" stopColor="#ff6a5f"/>
    </linearGradient>
  </defs>
  <g id="Group_6905" data-name="Group 6905" transform="translate(232.692 -506.533)">
    <path id="Path_20171" data-name="Path 20171" d="M-175.868,559.614a1.423,1.423,0,0,1-.01-2.142,4.033,4.033,0,0,0,.8-1.935c.121-.94.455-1.315,1.383-1.429a4.171,4.171,0,0,0,2.1-.889,1.227,1.227,0,0,1,.91-.332,1.324,1.324,0,0,1,.986.349,4.362,4.362,0,0,0,2.09.921c1.011.178,1.28.457,1.405,1.469a3.828,3.828,0,0,0,.787,1.869,1.432,1.432,0,0,1,.007,2.1,4.908,4.908,0,0,0-.884,2.177,1.235,1.235,0,0,1-1.284,1.2,4.223,4.223,0,0,0-2.057.836,1.384,1.384,0,0,1-2.09-.016,4.224,4.224,0,0,0-2-.813,1.358,1.358,0,0,1-1.37-1.426A3.827,3.827,0,0,0-175.868,559.614Z" transform="translate(-46.586 -38.325)" fill="url(#linear-gradient)"/>
    <path id="Path_20172" data-name="Path 20172" d="M-188.927,557.026c0-2.544-.017-5.089.014-7.634.005-.55-.163-.668-.687-.664q-6.564.031-13.132,0c-.471,0-.621.1-.619.6q.029,7.633,0,15.267c0,.5.147.6.619.6q6.567-.026,13.132,0c.523,0,.694-.112.687-.664C-188.944,562.03-188.927,559.528-188.927,557.026Zm-5.731,5.26q-2.749-.013-5.5,0c-.464,0-.77-.185-.775-.658s.291-.675.76-.67c.927.01,1.855,0,2.782,0,.9,0,1.812.009,2.717,0,.465-.007.763.17.767.656S-194.187,562.288-194.658,562.286Zm2.429-3.108c-1.313-.012-2.627,0-3.94,0s-2.628-.009-3.942.005c-.483,0-.825-.161-.822-.675s.362-.658.839-.656q3.94.015,7.882,0c.462,0,.836.1.848.638C-191.351,559.069-191.735,559.183-192.229,559.178Zm.076-3.108c-1.334-.009-2.67,0-4,0-1.315,0-2.628-.009-3.942.005-.479.005-.831-.147-.834-.663s.346-.67.827-.668q3.971.015,7.946,0c.484,0,.812.163.8.692C-191.377,555.928-191.7,556.072-192.152,556.07Zm3.225.955c0-2.544-.017-5.089.014-7.634.005-.55-.163-.668-.687-.664q-6.564.031-13.132,0c-.471,0-.621.1-.619.6q.029,7.633,0,15.267c0,.5.147.6.619.6q6.567-.026,13.132,0c.523,0,.694-.112.687-.664C-188.944,562.03-188.927,559.528-188.927,557.026Zm-5.731,5.26q-2.749-.013-5.5,0c-.464,0-.77-.185-.775-.658s.291-.675.76-.67c.927.01,1.855,0,2.782,0,.9,0,1.812.009,2.717,0,.465-.007.763.17.767.656S-194.187,562.288-194.658,562.286Zm2.429-3.108c-1.313-.012-2.627,0-3.94,0s-2.628-.009-3.942.005c-.483,0-.825-.161-.822-.675s.362-.658.839-.656q3.94.015,7.882,0c.462,0,.836.1.848.638C-191.351,559.069-191.735,559.183-192.229,559.178Zm.076-3.108c-1.334-.009-2.67,0-4,0-1.315,0-2.628-.009-3.942.005-.479.005-.831-.147-.834-.663s.346-.67.827-.668q3.971.015,7.946,0c.484,0,.812.163.8.692C-191.377,555.928-191.7,556.072-192.152,556.07Zm3.225.955c0-2.544-.017-5.089.014-7.634.005-.55-.163-.668-.687-.664q-6.564.031-13.132,0c-.471,0-.621.1-.619.6q.029,7.633,0,15.267c0,.5.147.6.619.6q6.567-.026,13.132,0c.523,0,.694-.112.687-.664C-188.944,562.03-188.927,559.528-188.927,557.026Zm-5.731,5.26q-2.749-.013-5.5,0c-.464,0-.77-.185-.775-.658s.291-.675.76-.67c.927.01,1.855,0,2.782,0,.9,0,1.812.009,2.717,0,.465-.007.763.17.767.656S-194.187,562.288-194.658,562.286Zm2.429-3.108c-1.313-.012-2.627,0-3.94,0s-2.628-.009-3.942.005c-.483,0-.825-.161-.822-.675s.362-.658.839-.656q3.94.015,7.882,0c.462,0,.836.1.848.638C-191.351,559.069-191.735,559.183-192.229,559.178Zm.076-3.108c-1.334-.009-2.67,0-4,0-1.315,0-2.628-.009-3.942.005-.479.005-.831-.147-.834-.663s.346-.67.827-.668q3.971.015,7.946,0c.484,0,.812.163.8.692C-191.377,555.928-191.7,556.072-192.152,556.07Zm3.225.955c0-2.544-.017-5.089.014-7.634.005-.55-.163-.668-.687-.664q-6.564.031-13.132,0c-.471,0-.621.1-.619.6q.029,7.633,0,15.267c0,.5.147.6.619.6q6.567-.026,13.132,0c.523,0,.694-.112.687-.664C-188.944,562.03-188.927,559.528-188.927,557.026Zm-5.731,5.26q-2.749-.013-5.5,0c-.464,0-.77-.185-.775-.658s.291-.675.76-.67c.927.01,1.855,0,2.782,0,.9,0,1.812.009,2.717,0,.465-.007.763.17.767.656S-194.187,562.288-194.658,562.286Zm2.429-3.108c-1.313-.012-2.627,0-3.94,0s-2.628-.009-3.942.005c-.483,0-.825-.161-.822-.675s.362-.658.839-.656q3.94.015,7.882,0c.462,0,.836.1.848.638C-191.351,559.069-191.735,559.183-192.229,559.178Zm.076-3.108c-1.334-.009-2.67,0-4,0-1.315,0-2.628-.009-3.942.005-.479.005-.831-.147-.834-.663s.346-.67.827-.668q3.971.015,7.946,0c.484,0,.812.163.8.692C-191.377,555.928-191.7,556.072-192.152,556.07Zm29.606-27.135c0-.535-.078-.727-.687-.725q-22.394.031-44.787,0c-.6,0-.692.173-.69.718q.023,14.369.012,28.738,0,14.436-.012,28.869c0,.509.128.64.637.637q4.335-.039,8.673,0c.495,0,.649-.107.647-.632-.021-5.264,0-10.529-.026-15.793,0-.575.125-.737.723-.735q14.27.031,28.542,0c.545,0,.711.1.708.685-.028,5.286-.01,10.572-.028,15.859,0,.467.088.628.594.616q2.489-.052,4.982,0c.554.012.718-.107.718-.7Q-162.569,557.7-162.546,528.935Zm-41.286,7.446a3.074,3.074,0,0,0,.663-1.571,2.716,2.716,0,0,1,2.634-2.461,2.183,2.183,0,0,0,1.171-.481,2.884,2.884,0,0,1,3.988.016,2.181,2.181,0,0,0,1.177.467,2.666,2.666,0,0,1,2.578,2.634,2.015,2.015,0,0,0,.457,1.173,2.9,2.9,0,0,1,.016,3.99,2.139,2.139,0,0,0-.476,1.17,2.7,2.7,0,0,1-2.436,2.582,3.266,3.266,0,0,0-1.578.652,2.775,2.775,0,0,1-3.573,0,3.364,3.364,0,0,0-1.576-.657,2.65,2.65,0,0,1-2.369-2.36,3.349,3.349,0,0,0-.708-1.689,2.633,2.633,0,0,1-.59-1.739A2.712,2.712,0,0,1-203.832,536.381Zm15.672,30.172q-7.989-.026-15.976,0c-.434,0-.574-.081-.573-.55q.026-9.056,0-18.112c0-.436.126-.521.535-.521q8.02.021,16.04,0c.484,0,.542.164.54.585-.017,3.018-.009,6.037-.009,9.055,0,3-.012,5.994.012,8.991C-187.586,566.465-187.719,566.555-188.16,566.553Zm18.011-12.206a1.49,1.49,0,0,0-.057,2.071,2.7,2.7,0,0,1,.706,3.064.953.953,0,0,0,.005.784,2.67,2.67,0,0,1-1.158,3.4c-.446.258-.561.683-.775,1.062-.329.58-.491,1.4-.981,1.7s-1.291.1-1.955.1c-.734.007-1.467,0-2.2,0-1.23,0-2.459-.012-3.689.009a.571.571,0,0,1-.632-.395c-.137-.336-.336-.647-.491-.976a4,4,0,0,0-1.37-1.789,2.535,2.535,0,0,1-.773-3.077.977.977,0,0,0-.007-.834,2.667,2.667,0,0,1,.732-3.051,1.478,1.478,0,0,0-.061-2.057,10.089,10.089,0,0,1-3.869-10.482,10.005,10.005,0,0,1,8-8.083,10.384,10.384,0,0,1,12.483,8.242A10.3,10.3,0,0,1-170.149,554.347Zm-8.223-17.309a8.613,8.613,0,0,0-7.093,6.845,8.693,8.693,0,0,0,3.248,9.259,2.257,2.257,0,0,1,1.1,2.154c-.033.254.033.4.341.393.711-.017,1.424-.01,2.135,0,.232,0,.351-.045.351-.318-.01-2.912,0-5.826-.021-8.738a1.061,1.061,0,0,0-.8-.995,1.024,1.024,0,0,0-1.12.3A1.034,1.034,0,0,0-180.5,547a1.1,1.1,0,0,0,1.036.825c.448.057.732.279.673.765-.062.509-.467.59-.867.573a2.492,2.492,0,0,1-2.2-2.935,2.458,2.458,0,0,1,2.77-1.962,2.431,2.431,0,0,1,2.1,2.525q.008,4.174,0,8.349c0,.32-.029.562.445.561.493,0,.431-.275.431-.576q0-2.1,0-4.208t0-4.206a2.3,2.3,0,0,1,1.441-2.246,2.315,2.315,0,0,1,2.644.408,2.362,2.362,0,0,1,.716,2.582,2.526,2.526,0,0,1-2.07,1.718c-.4.036-.812-.031-.912-.514-.106-.5.164-.767.656-.832a1.807,1.807,0,0,0,.253-.05,1.035,1.035,0,0,0,.824-1.088,1.044,1.044,0,0,0-.917-1.087,1.07,1.07,0,0,0-1.206.658,1.559,1.559,0,0,0-.109.756c0,2.137,0,4.272,0,6.407,0,.73-.254,1.718.114,2.12.42.455,1.421.086,2.165.147.408.033.6-.073.543-.523a2.056,2.056,0,0,1,.947-1.971,8.807,8.807,0,0,0,3.419-8.8A9.01,9.01,0,0,0-178.372,537.038Zm7.7,21.131a1.43,1.43,0,0,0-1.545-1.085c-2.867-.005-5.734,0-8.6-.005a1.525,1.525,0,0,0-1.075.35,1.35,1.35,0,0,0-.483,1.147,1.465,1.465,0,0,0,1.038,1.3c-.907.562-1.173,1.064-.978,1.789a1.412,1.412,0,0,0,1.493,1.08c2.888.012,5.778.019,8.666-.005a1.433,1.433,0,0,0,1.49-1.692,1.689,1.689,0,0,0-1.028-1.164A1.488,1.488,0,0,0-170.668,558.169Zm-8.268,6.979c1.658-.073,3.321-.022,4.982-.022.927,0,1.024-.081,1.222-1.04h-7.595A1.144,1.144,0,0,0-178.936,565.148ZM-189.6,548.727q-6.564.031-13.132,0c-.471,0-.621.1-.619.6q.029,7.633,0,15.267c0,.5.147.6.619.6q6.567-.026,13.132,0c.523,0,.694-.112.687-.664-.031-2.5-.014-5-.014-7.5,0-2.544-.017-5.089.014-7.634C-188.908,548.841-189.076,548.723-189.6,548.727Zm-5.058,13.559q-2.749-.013-5.5,0c-.464,0-.77-.185-.775-.658s.291-.675.76-.67c.927.01,1.855,0,2.782,0,.9,0,1.812.009,2.717,0,.465-.007.763.17.767.656S-194.187,562.288-194.658,562.286Zm2.429-3.108c-1.313-.012-2.627,0-3.94,0s-2.628-.009-3.942.005c-.483,0-.825-.161-.822-.675s.362-.658.839-.656q3.94.015,7.882,0c.462,0,.836.1.848.638C-191.351,559.069-191.735,559.183-192.229,559.178Zm.076-3.108c-1.334-.009-2.67,0-4,0-1.315,0-2.628-.009-3.942.005-.479.005-.831-.147-.834-.663s.346-.67.827-.668q3.971.015,7.946,0c.484,0,.812.163.8.692C-191.377,555.928-191.7,556.072-192.152,556.07Zm3.225.955c0-2.544-.017-5.089.014-7.634.005-.55-.163-.668-.687-.664q-6.564.031-13.132,0c-.471,0-.621.1-.619.6q.029,7.633,0,15.267c0,.5.147.6.619.6q6.567-.026,13.132,0c.523,0,.694-.112.687-.664C-188.944,562.03-188.927,559.528-188.927,557.026Zm-5.731,5.26q-2.749-.013-5.5,0c-.464,0-.77-.185-.775-.658s.291-.675.76-.67c.927.01,1.855,0,2.782,0,.9,0,1.812.009,2.717,0,.465-.007.763.17.767.656S-194.187,562.288-194.658,562.286Zm2.429-3.108c-1.313-.012-2.627,0-3.94,0s-2.628-.009-3.942.005c-.483,0-.825-.161-.822-.675s.362-.658.839-.656q3.94.015,7.882,0c.462,0,.836.1.848.638C-191.351,559.069-191.735,559.183-192.229,559.178Zm.076-3.108c-1.334-.009-2.67,0-4,0-1.315,0-2.628-.009-3.942.005-.479.005-.831-.147-.834-.663s.346-.67.827-.668q3.971.015,7.946,0c.484,0,.812.163.8.692C-191.377,555.928-191.7,556.072-192.152,556.07Zm3.225.955c0-2.544-.017-5.089.014-7.634.005-.55-.163-.668-.687-.664q-6.564.031-13.132,0c-.471,0-.621.1-.619.6q.029,7.633,0,15.267c0,.5.147.6.619.6q6.567-.026,13.132,0c.523,0,.694-.112.687-.664C-188.944,562.03-188.927,559.528-188.927,557.026Zm-5.731,5.26q-2.749-.013-5.5,0c-.464,0-.77-.185-.775-.658s.291-.675.76-.67c.927.01,1.855,0,2.782,0,.9,0,1.812.009,2.717,0,.465-.007.763.17.767.656S-194.187,562.288-194.658,562.286Zm2.429-3.108c-1.313-.012-2.627,0-3.94,0s-2.628-.009-3.942.005c-.483,0-.825-.161-.822-.675s.362-.658.839-.656q3.94.015,7.882,0c.462,0,.836.1.848.638C-191.351,559.069-191.735,559.183-192.229,559.178Zm.076-3.108c-1.334-.009-2.67,0-4,0-1.315,0-2.628-.009-3.942.005-.479.005-.831-.147-.834-.663s.346-.67.827-.668q3.971.015,7.946,0c.484,0,.812.163.8.692C-191.377,555.928-191.7,556.072-192.152,556.07Zm3.225.955c0-2.544-.017-5.089.014-7.634.005-.55-.163-.668-.687-.664q-6.564.031-13.132,0c-.471,0-.621.1-.619.6q.029,7.633,0,15.267c0,.5.147.6.619.6q6.567-.026,13.132,0c.523,0,.694-.112.687-.664C-188.944,562.03-188.927,559.528-188.927,557.026Zm-5.731,5.26q-2.749-.013-5.5,0c-.464,0-.77-.185-.775-.658s.291-.675.76-.67c.927.01,1.855,0,2.782,0,.9,0,1.812.009,2.717,0,.465-.007.763.17.767.656S-194.187,562.288-194.658,562.286Zm2.429-3.108c-1.313-.012-2.627,0-3.94,0s-2.628-.009-3.942.005c-.483,0-.825-.161-.822-.675s.362-.658.839-.656q3.94.015,7.882,0c.462,0,.836.1.848.638C-191.351,559.069-191.735,559.183-192.229,559.178Zm.076-3.108c-1.334-.009-2.67,0-4,0-1.315,0-2.628-.009-3.942.005-.479.005-.831-.147-.834-.663s.346-.67.827-.668q3.971.015,7.946,0c.484,0,.812.163.8.692C-191.377,555.928-191.7,556.072-192.152,556.07Zm3.225.955c0-2.544-.017-5.089.014-7.634.005-.55-.163-.668-.687-.664q-6.564.031-13.132,0c-.471,0-.621.1-.619.6q.029,7.633,0,15.267c0,.5.147.6.619.6q6.567-.026,13.132,0c.523,0,.694-.112.687-.664C-188.944,562.03-188.927,559.528-188.927,557.026Zm-5.731,5.26q-2.749-.013-5.5,0c-.464,0-.77-.185-.775-.658s.291-.675.76-.67c.927.01,1.855,0,2.782,0,.9,0,1.812.009,2.717,0,.465-.007.763.17.767.656S-194.187,562.288-194.658,562.286Zm2.429-3.108c-1.313-.012-2.627,0-3.94,0s-2.628-.009-3.942.005c-.483,0-.825-.161-.822-.675s.362-.658.839-.656q3.94.015,7.882,0c.462,0,.836.1.848.638C-191.351,559.069-191.735,559.183-192.229,559.178Zm.076-3.108c-1.334-.009-2.67,0-4,0-1.315,0-2.628-.009-3.942.005-.479.005-.831-.147-.834-.663s.346-.67.827-.668q3.971.015,7.946,0c.484,0,.812.163.8.692C-191.377,555.928-191.7,556.072-192.152,556.07Z" transform="translate(-19.832 -17.926)" fill="url(#linear-gradient)"/>
    <path id="Path_20173" data-name="Path 20173" d="M-143.649,787.911c1.2,1,2.28,1.905,3.36,2.813q4.949,4.16,9.888,8.333c.352.3.53.235.841-.028q6.371-5.383,12.764-10.741c.11-.092.189-.236.367-.244.159.135.076.319.077.475.005,5.026,0,10.051.018,15.077,0,.535-.168.624-.653.623q-13.005-.021-26.011,0c-.545,0-.666-.147-.664-.676C-143.64,798.393-143.649,793.239-143.649,787.911Z" transform="translate(-73.625 -232.69)" fill="url(#linear-gradient)"/>
    <path id="Path_20174" data-name="Path 20174" d="M-232.68,536.057q0-14.4-.012-28.806c0-.543.091-.719.69-.718q22.4.03,44.791.005c.492,0,.694.1.641.626-.058.575.183,1.355-.111,1.686-.342.385-1.135.12-1.73.121q-20.357.011-40.713-.007c-.563,0-.742.105-.742.716q.029,27.511.032,55.022c0,.652-.145.882-.8.8a7.353,7.353,0,0,0-1.486,0c-.465.039-.566-.132-.564-.575.018-3.517.01-7.034.01-10.551Z" transform="translate(0)" fill="url(#linear-gradient)"/>
    <path id="Path_20175" data-name="Path 20175" d="M98.336,628.985c0,4.443.007,8.886,0,13.329,0,1.118-.188,1.21-1.163,1.173-1.184-.045-2.374-.051-3.557.006-.6.029-.727-.306-.822-.741a2.171,2.171,0,0,1-.007-.452q0-13.3-.013-26.593c0-.554.1-.732.695-.711,1.4.052,2.8.042,4.2,0,.523-.014.685.1.682.657C98.325,620.1,98.336,624.542,98.336,628.985Z" transform="translate(-269.145 -89.693)" fill="url(#linear-gradient)"/>
    <path id="Path_20176" data-name="Path 20176" d="M-116.075,777.689c-.912.774-1.72,1.466-2.534,2.151-3.512,2.956-7.034,5.9-10.529,8.878-.446.38-.687.386-1.14,0-4.138-3.519-8.3-7.007-12.457-10.505-.173-.145-.336-.3-.582-.525Z" transform="translate(-73.91 -224.237)" fill="url(#linear-gradient)"/>
    <path id="Path_20177" data-name="Path 20177" d="M77.141,605.623a58.425,58.425,0,0,0-.258,8.059c-.006,2.932,0,5.864,0,8.8a1.548,1.548,0,0,1-.1.76.663.663,0,0,1-.755.358.576.576,0,0,1-.546-.542,3.8,3.8,0,0,1-.017-.387q0-7.147,0-14.293A2.823,2.823,0,0,1,77.141,605.623Z" transform="translate(-254.832 -81.944)" fill="url(#linear-gradient)"/>
    <path id="Path_20178" data-name="Path 20178" d="M95.561,592.859c-.755,0-1.511-.018-2.265.008-.378.013-.544-.066-.521-.491.037-.688.024-1.38,0-2.07-.01-.339.05-.5.449-.5,1.553.021,3.106.015,4.659,0,.318,0,.47.066.457.427-.025.733-.025,1.467,0,2.2.012.358-.13.436-.454.428C97.115,592.847,96.338,592.859,95.561,592.859Z" transform="translate(-269.148 -68.864)" fill="url(#linear-gradient)"/>
    <path id="Path_20179" data-name="Path 20179" d="M99.724,570.677h-.2c-2.073,0-2.067,0-1.882-2.069.022-.251.09-.329.337-.326q1.55.016,3.1,0c.255,0,.356.082.326.333a2.568,2.568,0,0,0,0,.258c-.011.578.2,1.35-.091,1.683C100.969,570.945,100.178,570.605,99.724,570.677Z" transform="translate(-273.109 -51.064)" fill="url(#linear-gradient)"/>
    <path id="Path_20180" data-name="Path 20180" d="M98.073,787.375h3.745l-1.874,4.092Z" transform="translate(-273.531 -232.246)" fill="url(#linear-gradient)"/>
    <path id="Path_20181" data-name="Path 20181" d="M-44.68,735.54h7.595c-.2.959-.294,1.04-1.222,1.04-1.661,0-3.324-.05-4.982.022A1.144,1.144,0,0,1-44.68,735.54Z" transform="translate(-155.479 -189.381)" fill="url(#linear-gradient)"/>
    <path id="Path_20182" data-name="Path 20182" d="M-45.838,697.856a1.689,1.689,0,0,1,1.028,1.164,1.433,1.433,0,0,1-1.49,1.692c-2.888.024-5.778.017-8.666.005a1.412,1.412,0,0,1-1.493-1.08c-.2-.725.071-1.227.978-1.789a1.465,1.465,0,0,1-1.038-1.3,1.35,1.35,0,0,1,.483-1.147,1.525,1.525,0,0,1,1.075-.35c2.867.007,5.734,0,8.6.005a1.43,1.43,0,0,1,1.545,1.085A1.488,1.488,0,0,1-45.838,697.856Z" transform="translate(-145.685 -155.897)" fill="url(#linear-gradient)"/>
    <path id="Path_20183" data-name="Path 20183" d="M-61.275,594.483a2.056,2.056,0,0,0-.947,1.971c.059.45-.135.555-.543.523-.744-.061-1.744.308-2.165-.147-.369-.4-.112-1.39-.114-2.12-.005-2.135,0-4.271,0-6.407a1.559,1.559,0,0,1,.109-.756,1.07,1.07,0,0,1,1.206-.658,1.044,1.044,0,0,1,.917,1.087,1.035,1.035,0,0,1-.824,1.088,1.816,1.816,0,0,1-.253.05c-.491.066-.761.329-.656.832.1.483.509.55.912.514a2.526,2.526,0,0,0,2.07-1.718,2.362,2.362,0,0,0-.716-2.582,2.314,2.314,0,0,0-2.644-.408A2.3,2.3,0,0,0-66.366,588q0,2.1,0,4.207t0,4.208c0,.3.062.576-.431.576-.474,0-.446-.24-.445-.561q.008-4.174,0-8.349a2.431,2.431,0,0,0-2.1-2.525,2.458,2.458,0,0,0-2.77,1.962,2.492,2.492,0,0,0,2.2,2.935c.4.017.8-.064.867-.573.059-.486-.225-.708-.673-.765a1.1,1.1,0,0,1-1.036-.825,1.033,1.033,0,0,1,.268-1.069,1.023,1.023,0,0,1,1.12-.3,1.061,1.061,0,0,1,.8.995c.024,2.912.01,5.826.021,8.738,0,.273-.119.322-.351.318-.711-.007-1.424-.014-2.135,0-.308.007-.374-.138-.341-.393a2.256,2.256,0,0,0-1.1-2.154,8.693,8.693,0,0,1-3.248-9.259,8.613,8.613,0,0,1,7.093-6.845,9.01,9.01,0,0,1,10.778,7.356A8.807,8.807,0,0,1-61.275,594.483Z" transform="translate(-129.57 -59.213)" fill="url(#linear-gradient)"/>
    <path id="Path_20184" data-name="Path 20184" d="M-163.316,655.078c0-2.544-.017-5.089.014-7.634.005-.55-.163-.668-.687-.664q-6.564.031-13.132,0c-.471,0-.621.1-.619.6q.029,7.633,0,15.267c0,.5.147.6.619.6q6.567-.026,13.132,0c.523,0,.694-.112.687-.664C-163.333,660.083-163.316,657.581-163.316,655.078Zm-5.731,5.26q-2.749-.013-5.5,0c-.464,0-.77-.185-.775-.658s.291-.675.76-.67c.927.01,1.855,0,2.782,0,.9,0,1.812.009,2.717,0,.465-.007.763.17.767.656S-168.576,660.34-169.047,660.339Zm2.429-3.108c-1.313-.012-2.627,0-3.94,0s-2.628-.009-3.942.005c-.483,0-.825-.161-.822-.675s.362-.658.839-.656q3.94.016,7.882,0c.462,0,.836.1.848.638C-165.74,657.122-166.124,657.236-166.617,657.231Zm.076-3.108c-1.334-.009-2.67,0-4,0-1.315,0-2.628-.009-3.942.005-.479.005-.831-.147-.834-.663s.346-.67.827-.668q3.971.016,7.946,0c.484,0,.812.163.8.692C-165.766,653.981-166.091,654.125-166.541,654.123Z" transform="translate(-45.443 -115.979)" fill="url(#linear-gradient)"/>
    <path id="Path_20185" data-name="Path 20185" d="M-165.406,559.594a4.908,4.908,0,0,0-.884,2.177,1.235,1.235,0,0,1-1.284,1.2,4.223,4.223,0,0,0-2.057.836,1.384,1.384,0,0,1-2.09-.016,4.224,4.224,0,0,0-2-.813,1.358,1.358,0,0,1-1.37-1.426,3.827,3.827,0,0,0-.777-1.943,1.423,1.423,0,0,1-.01-2.142,4.033,4.033,0,0,0,.8-1.935c.121-.94.455-1.315,1.383-1.429a4.171,4.171,0,0,0,2.1-.889,1.227,1.227,0,0,1,.91-.332,1.324,1.324,0,0,1,.986.349,4.362,4.362,0,0,0,2.09.921c1.011.178,1.28.457,1.405,1.469a3.828,3.828,0,0,0,.787,1.869A1.432,1.432,0,0,1-165.406,559.594Z" transform="translate(-46.586 -38.325)" fill="url(#linear-gradient)"/>
    <path id="Path_20186" data-name="Path 20186" d="M-61.275,594.483a2.056,2.056,0,0,0-.947,1.971c.059.45-.135.555-.543.523-.744-.061-1.744.308-2.165-.147-.369-.4-.112-1.39-.114-2.12-.005-2.135,0-4.271,0-6.407a1.559,1.559,0,0,1,.109-.756,1.07,1.07,0,0,1,1.206-.658,1.044,1.044,0,0,1,.917,1.087,1.035,1.035,0,0,1-.824,1.088,1.816,1.816,0,0,1-.253.05c-.491.066-.761.329-.656.832.1.483.509.55.912.514a2.526,2.526,0,0,0,2.07-1.718,2.362,2.362,0,0,0-.716-2.582,2.314,2.314,0,0,0-2.644-.408A2.3,2.3,0,0,0-66.366,588q0,2.1,0,4.207t0,4.208c0,.3.062.576-.431.576-.474,0-.446-.24-.445-.561q.008-4.174,0-8.349a2.431,2.431,0,0,0-2.1-2.525,2.458,2.458,0,0,0-2.77,1.962,2.492,2.492,0,0,0,2.2,2.935c.4.017.8-.064.867-.573.059-.486-.225-.708-.673-.765a1.1,1.1,0,0,1-1.036-.825,1.033,1.033,0,0,1,.268-1.069,1.023,1.023,0,0,1,1.12-.3,1.061,1.061,0,0,1,.8.995c.024,2.912.01,5.826.021,8.738,0,.273-.119.322-.351.318-.711-.007-1.424-.014-2.135,0-.308.007-.374-.138-.341-.393a2.256,2.256,0,0,0-1.1-2.154,8.693,8.693,0,0,1-3.248-9.259,8.613,8.613,0,0,1,7.093-6.845,9.01,9.01,0,0,1,10.778,7.356A8.807,8.807,0,0,1-61.275,594.483Z" transform="translate(-129.57 -59.213)" fill="url(#linear-gradient)"/>
    <path id="Path_20187" data-name="Path 20187" d="M-44.81,699.021a1.433,1.433,0,0,1-1.49,1.692c-2.888.024-5.778.017-8.666.005a1.412,1.412,0,0,1-1.493-1.08c-.2-.725.071-1.227.978-1.789a1.465,1.465,0,0,1-1.038-1.3,1.35,1.35,0,0,1,.483-1.147,1.525,1.525,0,0,1,1.075-.35c2.867.007,5.734,0,8.6.005a1.43,1.43,0,0,1,1.545,1.085,1.488,1.488,0,0,1-1.023,1.716A1.689,1.689,0,0,1-44.81,699.021Z" transform="translate(-145.685 -155.897)" fill="url(#linear-gradient)"/>
    <path id="Path_20188" data-name="Path 20188" d="M-37.085,735.54c-.2.959-.294,1.04-1.222,1.04-1.661,0-3.324-.05-4.982.022a1.144,1.144,0,0,1-1.391-1.062Z" transform="translate(-155.479 -189.381)" fill="url(#linear-gradient)"/>
    <path id="Path_20189" data-name="Path 20189" d="M-163.316,655.078c0-2.544-.017-5.089.014-7.634.005-.55-.163-.668-.687-.664q-6.564.031-13.132,0c-.471,0-.621.1-.619.6q.029,7.633,0,15.267c0,.5.147.6.619.6q6.567-.026,13.132,0c.523,0,.694-.112.687-.664C-163.333,660.083-163.316,657.581-163.316,655.078Zm-5.731,5.26q-2.749-.013-5.5,0c-.464,0-.77-.185-.775-.658s.291-.675.76-.67c.927.01,1.855,0,2.782,0,.9,0,1.812.009,2.717,0,.465-.007.763.17.767.656S-168.576,660.34-169.047,660.339Zm2.429-3.108c-1.313-.012-2.627,0-3.94,0s-2.628-.009-3.942.005c-.483,0-.825-.161-.822-.675s.362-.658.839-.656q3.94.016,7.882,0c.462,0,.836.1.848.638C-165.74,657.122-166.124,657.236-166.617,657.231Zm.076-3.108c-1.334-.009-2.67,0-4,0-1.315,0-2.628-.009-3.942.005-.479.005-.831-.147-.834-.663s.346-.67.827-.668q3.971.016,7.946,0c.484,0,.812.163.8.692C-165.766,653.981-166.091,654.125-166.541,654.123Z" transform="translate(-45.443 -115.979)" fill="url(#linear-gradient)"/>
    <path id="Path_20190" data-name="Path 20190" d="M-165.406,559.594a4.908,4.908,0,0,0-.884,2.177,1.235,1.235,0,0,1-1.284,1.2,4.223,4.223,0,0,0-2.057.836,1.384,1.384,0,0,1-2.09-.016,4.224,4.224,0,0,0-2-.813,1.358,1.358,0,0,1-1.37-1.426,3.827,3.827,0,0,0-.777-1.943,1.423,1.423,0,0,1-.01-2.142,4.033,4.033,0,0,0,.8-1.935c.121-.94.455-1.315,1.383-1.429a4.171,4.171,0,0,0,2.1-.889,1.227,1.227,0,0,1,.91-.332,1.324,1.324,0,0,1,.986.349,4.362,4.362,0,0,0,2.09.921c1.011.178,1.28.457,1.405,1.469a3.828,3.828,0,0,0,.787,1.869A1.432,1.432,0,0,1-165.406,559.594Z" transform="translate(-46.586 -38.325)" fill="url(#linear-gradient)"/>
  </g>
</svg>
