<svg xmlns="http://www.w3.org/2000/svg" xmlns:xlink="http://www.w3.org/1999/xlink" width="70.413" height="65" viewBox="0 0 70.413 65">
  <defs>
    <linearGradient id="linear-gradient" x1="0.03" x2="1.033" y2="1.166" gradientUnits="objectBoundingBox">
      <stop offset="0" stopColor="#ff3756"/>
      <stop offset="1" stopColor="#ff6a5f"/>
    </linearGradient>
  </defs>
  <g id="Group_6906" data-name="Group 6906" transform="translate(-103.547 -477.571)">
    <path id="Path_20191" data-name="Path 20191" d="M181.218,544.236a5.9,5.9,0,0,0,.264-3.865c-.086-.294.012-.422.332-.413,2.56.067,5.13-.179,7.679.123a4.493,4.493,0,0,1,3.958,4.539q.022,18.877.026,37.753c0,.528-.17.613-.645.613q-29.529-.017-59.057,0c-.533,0-.676-.128-.675-.669q.025-18.684.018-37.369a4.7,4.7,0,0,1,4.868-4.981c6.305-.027,12.611-.009,18.917-.008.092,0,.184.012.422.029-1.034,1.438-1.993,2.781-2.965,4.115-.181.248-.478.125-.721.126q-7.613.01-15.226.006c-.98,0-1.033.051-1.033,1.047q0,16.685-.016,33.37c0,.645.163.795.8.794q25.107-.028,50.214,0c.677,0,.833-.16.831-.832q-.035-16.647-.017-33.293c0-1.087,0-1.087-1.129-1.088Z" transform="translate(-23.48 -49.539)" fill="url(#linear-gradient)"/>
    <path id="Path_20192" data-name="Path 20192" d="M185.065,762.371c1.3,0,2.4.011,3.5-.005.514-.007.877.169.882.714s-.384.728-.879.728h-.538q-30.1,0-60.194,0c-.643,0-1.321.1-1.472-.813-.018-.11-.222-.2-.347-.282a6.775,6.775,0,0,1-2.972-6.2c.009-.319.081-.487.43-.449a4.267,4.267,0,0,0,.461,0q31.366,0,62.731-.019c.764,0,.924.206.9.929A6.946,6.946,0,0,1,185.065,762.371Z" transform="translate(-15.484 -221.242)" fill="url(#linear-gradient)"/>
    <path id="Path_20193" data-name="Path 20193" d="M246.622,501.278l13.3,24.268c-1.247.082-2.393.168-3.54.23q-6.214.338-12.428.663a.934.934,0,0,0-.23.011c-1.583.512-2.3-.285-2.97-1.643-1.416-2.853-3.027-5.609-4.575-8.4a.518.518,0,0,1,.012-.671C239.657,510.954,243.107,506.159,246.622,501.278Z" transform="translate(-105.283 -18.834)" fill="url(#linear-gradient)"/>
    <path id="Path_20194" data-name="Path 20194" d="M182.031,580.755a1.125,1.125,0,0,1,.627-1.312c2.1-1.152,4.2-2.318,6.306-3.461a1.065,1.065,0,0,1,1.628.452q2.613,4.719,5.181,9.463a1.065,1.065,0,0,1-.493,1.614c-2.116,1.178-4.245,2.331-6.37,3.492a.98.98,0,0,1-1.324-.174c-.268-.326-.468-.289-.763-.1a7.105,7.105,0,0,1-.8.44,1.445,1.445,0,0,1-2.039-.6q-1.865-3.339-3.671-6.71a1.428,1.428,0,0,1,.583-2.039,9.084,9.084,0,0,1,.806-.437C181.991,581.238,182.27,581.1,182.031,580.755Z" transform="translate(-60.814 -78.021)" fill="url(#linear-gradient)"/>
    <path id="Path_20195" data-name="Path 20195" d="M290.771,477.572a2.044,2.044,0,0,1,1.954,1.272q3.427,6.282,6.879,12.55,3.788,6.914,7.568,13.831a2.007,2.007,0,1,1-3.5,1.954c-1.523-2.77-3.032-5.549-4.551-8.322-3.319-6.061-6.625-12.129-9.972-18.175A2.008,2.008,0,0,1,290.771,477.572Z" transform="translate(-147.198)" fill="url(#linear-gradient)"/>
    <path id="Path_20196" data-name="Path 20196" d="M234.827,656.672a.986.986,0,0,1-1.01-.562q-2.8-5.1-5.6-10.194c-.135-.245-.132-.377.147-.526q1.993-1.062,3.96-2.171c.31-.174.417-.118.535.216a27.154,27.154,0,0,0,5.691,8.744c.254.288.521.566.755.871a.849.849,0,0,1-.18,1.338c-1.308.792-2.667,1.5-4.01,2.231A.725.725,0,0,1,234.827,656.672Z" transform="translate(-98.979 -131.526)" fill="url(#linear-gradient)"/>
    <path id="Path_20197" data-name="Path 20197" d="M340.373,528.98a4.087,4.087,0,0,1,4.109,2.175,4,4,0,0,1-.437,4.535Z" transform="translate(-188.151 -40.813)" fill="url(#linear-gradient)"/>
    <path id="Path_20198" data-name="Path 20198" d="M106.169,786.8c.615,0,1.229.009,1.843,0a.676.676,0,0,1,.788.727.658.658,0,0,1-.737.705c-1.254.011-2.509.017-3.763,0a.717.717,0,1,1,.025-1.431C104.94,786.8,105.554,786.8,106.169,786.8Z" transform="translate(0 -245.669)" fill="url(#linear-gradient)"/>
  </g>
</svg>
