<svg xmlns="http://www.w3.org/2000/svg" xmlns:xlink="http://www.w3.org/1999/xlink" width="62.791" height="65" viewBox="0 0 62.791 65">
  <defs>
    <linearGradient id="linear-gradient" x1="-0.58" y1="-0.466" x2="1" y2="1.416" gradientUnits="objectBoundingBox">
      <stop offset="0" stopColor="#ff3756"/>
      <stop offset="1" stopColor="#ff6a5f"/>
    </linearGradient>
  </defs>
  <g id="Group_6907" data-name="Group 6907" transform="translate(-521.972 -451.21)">
    <path id="Path_20199" data-name="Path 20199" d="M676.207,533.453c-4.669,0-9.337-.011-14,.009a4.019,4.019,0,0,1-3.115-1.3c-.848-.9-1.756-1.743-2.615-2.634a1.733,1.733,0,0,0-1.355-.569c-3.967.021-7.935.011-11.9.011-1.078,0-1.434.348-1.434,1.4V553.34c0,1.052.358,1.4,1.436,1.4H676.2c1.1,0,1.441-.344,1.441-1.468V534.86C677.637,533.8,677.28,533.455,676.207,533.453Zm-22.864,15.3c-1.142,1.162-1.144,1.164-2.273.036-1.615-1.615-3.222-3.238-4.852-4.839-.315-.309-.354-.475-.015-.807q2.822-2.766,5.588-5.586c.326-.331.517-.339.807.008.341.408,1.011.779,1.009,1.164s-.64.786-1.016,1.164c-1.067,1.076-2.128,2.156-3.22,3.207-.341.329-.376.519-.013.869,1.34,1.3,2.643,2.63,3.969,3.941a2.874,2.874,0,0,0,.5.329C653.588,548.488,653.469,548.623,653.343,548.75Zm10.406-8.639c-1.677,3.023-3.364,6.039-5.023,9.072-.228.419-.408.425-.79.212-1.419-.792-1.428-.781-.65-2.183,1.5-2.7,3.012-5.389,4.48-8.1.273-.505.49-.562.928-.251a9.418,9.418,0,0,0,1.031.58c.129.069.228.142.234.273C663.879,539.866,663.817,539.991,663.749,540.111Zm9.457,3.834q-2.816,2.771-5.59,5.588c-.285.288-.462.378-.754.017-.344-.429-1.005-.79-1.045-1.224-.03-.35.648-.773,1.024-1.151,1.069-1.076,2.143-2.143,3.214-3.216.127-.129.247-.264.393-.421-.154-.165-.275-.3-.4-.431-1.335-1.335-2.66-2.681-4.014-4-.305-.3-.311-.451,0-.758,1.2-1.191,1.183-1.2,2.383,0,1.6,1.6,3.188,3.208,4.805,4.788C673.555,543.468,673.523,543.634,673.206,543.945Z" transform="translate(-97.381 -63.195)" fill="url(#linear-gradient)"/>
    <path id="Path_20200" data-name="Path 20200" d="M584.747,452.68c0-1.127-.335-1.47-1.436-1.47h-59.88c-1.1,0-1.436.341-1.436,1.47q0,21.323-.015,42.649c0,.58.133.717.715.715q15.337-.031,30.676-.015,15.337,0,30.676.015c.58,0,.715-.133.715-.715Q584.734,474,584.747,452.68Zm-44.9,28.652c.475.285.492.481.251.938-.764,1.449-.741,1.46-2.07.543a11.2,11.2,0,0,1,.824-18.894l.382-.215c.148-.052.223-.026.27.077.03.062.065.122.1.185.245.5.7,1.011.676,1.494s-.777.612-1.192.919A8.962,8.962,0,0,0,539.85,481.332Zm.709-21.194c-1.016.393-2.02.818-3.023,1.249a1.062,1.062,0,0,1-.914,0c-1.108-.474-2.239-.893-3.351-1.359a.631.631,0,0,0-.846.167,18.231,18.231,0,0,1-1.436,1.436.631.631,0,0,0-.178.844c.474,1.108.895,2.239,1.361,3.351a1.06,1.06,0,0,1,0,.915c-.446,1.018-.878,2.046-1.282,3.083a1.089,1.089,0,0,1-.653.659c-1.114.464-2.211.972-3.332,1.417a.585.585,0,0,0-.436.665c.024.7.037,1.4,0,2.1-.024.408.15.562.494.7,1.078.432,2.134.914,3.209,1.353a1.24,1.24,0,0,1,.753.751c.391,1.016.816,2.022,1.249,3.021a1.073,1.073,0,0,1,.009.915c-.477,1.133-.9,2.286-1.385,3.418a.547.547,0,0,0,.142.726c.612.575,1.108,1.441,1.825,1.688s1.593-.38,2.3-.773a3.945,3.945,0,0,1,4.09.032c1.142.6,1.185.518.685,1.713-.354.85-.4.927-1.157.5a3.065,3.065,0,0,0-3.24-.009c-.852.461-1.808.721-2.7,1.1a.643.643,0,0,1-.837-.172q-1.71-1.761-3.467-3.467a.678.678,0,0,1-.187-.891c.519-1.215.966-2.462,1.483-3.678a1.715,1.715,0,0,0,.015-1.236,3.27,3.27,0,0,0-2.42-2.467c-.906-.268-1.747-.749-2.634-1.091a.642.642,0,0,1-.457-.732c.021-1.634.024-3.268,0-4.9a.652.652,0,0,1,.472-.723c1.222-.5,2.422-1.063,3.652-1.544a1.8,1.8,0,0,0,.942-.921,3.19,3.19,0,0,0,.021-3.375,28.986,28.986,0,0,1-1.1-2.7.563.563,0,0,1,.127-.724c1.221-1.191,2.417-2.4,3.624-3.607.11-.109.2-.262.388-.26l.451.18c1.25.5,2.508.977,3.748,1.5a1.452,1.452,0,0,0,1.043,0,3.354,3.354,0,0,0,2.57-2.5c.26-.908.745-1.748,1.1-2.632a.554.554,0,0,1,.614-.414q2.522.022,5.043,0a.607.607,0,0,1,.666.449c.507,1.245,1.078,2.465,1.572,3.716a1.7,1.7,0,0,0,.884.887,3.242,3.242,0,0,0,3.439.022,25.477,25.477,0,0,1,2.7-1.11.518.518,0,0,1,.666.125c.878.9,1.773,1.793,2.673,2.675.228.223.24.348.006.6-1.234,1.3-1.224,1.31-2.486.049-1.011-1.009-1.011-1.009-2.319-.483-.99.4-1.982,1.1-2.971,1.1s-1.952-.784-2.961-1.118a2.188,2.188,0,0,1-1.483-1.475c-.339-.936-.8-1.825-1.17-2.754a.584.584,0,0,0-.666-.434c-.7.024-1.4.037-2.1,0-.41-.024-.563.152-.7.494-.434,1.075-.91,2.132-1.35,3.207A1.238,1.238,0,0,1,540.559,460.137Zm41.947,29.925a3.441,3.441,0,0,1-3.751,3.725q-8.23,0-16.458,0-8.157,0-16.316,0a3.453,3.453,0,0,1-3.815-3.8q0-11.344,0-22.688a3.443,3.443,0,0,1,3.779-3.765c3.9,0,7.8.011,11.7-.007a3.954,3.954,0,0,1,3.053,1.275c.85.9,1.758,1.741,2.613,2.634a1.8,1.8,0,0,0,1.417.592c4.669-.021,9.337-.011,14.006-.011a3.443,3.443,0,0,1,3.776,3.77Q582.509,480.924,582.506,490.063Z" transform="translate(-0.007)" fill="url(#linear-gradient)"/>
    <path id="Path_20201" data-name="Path 20201" d="M553.4,702.538q15.3,0,30.6-.016c.612,0,.8.133.751.753-.061.742-.014,1.493-.015,2.24,0,1.193-.32,1.505-1.544,1.505H523.458c-1.128,0-1.47-.335-1.471-1.437,0-.817.033-1.636-.013-2.45-.028-.5.123-.608.61-.607q10.05.026,20.1.012Z" transform="translate(0 -204.268)" fill="url(#linear-gradient)"/>
    <path id="Path_20202" data-name="Path 20202" d="M631.149,749.675c-4.248,0-8.5-.009-12.744.012-.5,0-.673-.079-.66-.63.036-1.621.007-1.622,1.616-1.622,1.214,0,2.428-.031,3.641.014a.778.778,0,0,0,.946-.68c.743-2.608,1.56-5.194,2.318-7.8.114-.391.26-.511.658-.508q4.271.025,8.542,0c.442,0,.58.147.7.554.761,2.628,1.565,5.244,2.34,7.868.118.4.276.581.749.57,1.633-.04,3.267,0,4.9-.024.381,0,.508.08.513.489.022,1.76.037,1.76-1.684,1.76Z" transform="translate(-77.845 -233.477)" fill="url(#linear-gradient)"/>
    <path id="Path_20203" data-name="Path 20203" d="M676.207,533.453c-4.669,0-9.337-.011-14,.009a4.019,4.019,0,0,1-3.115-1.3c-.848-.9-1.756-1.743-2.615-2.634a1.733,1.733,0,0,0-1.355-.569c-3.967.021-7.935.011-11.9.011-1.078,0-1.434.348-1.434,1.4V553.34c0,1.052.358,1.4,1.436,1.4H676.2c1.1,0,1.441-.344,1.441-1.468V534.86C677.637,533.8,677.28,533.455,676.207,533.453Zm-22.864,15.3c-1.142,1.162-1.144,1.164-2.273.036-1.615-1.615-3.222-3.238-4.852-4.839-.315-.309-.354-.475-.015-.807q2.822-2.766,5.588-5.586c.326-.331.517-.339.807.008.341.408,1.011.779,1.009,1.164s-.64.786-1.016,1.164c-1.067,1.076-2.128,2.156-3.22,3.207-.341.329-.376.519-.013.869,1.34,1.3,2.643,2.63,3.969,3.941a2.874,2.874,0,0,0,.5.329C653.588,548.488,653.469,548.623,653.343,548.75Zm10.406-8.639c-1.677,3.023-3.364,6.039-5.023,9.072-.228.419-.408.425-.79.212-1.419-.792-1.428-.781-.65-2.183,1.5-2.7,3.012-5.389,4.48-8.1.273-.505.49-.562.928-.251a9.418,9.418,0,0,0,1.031.58c.129.069.228.142.234.273C663.879,539.866,663.817,539.991,663.749,540.111Zm9.457,3.834q-2.816,2.771-5.59,5.588c-.285.288-.462.378-.754.017-.344-.429-1.005-.79-1.045-1.224-.03-.35.648-.773,1.024-1.151,1.069-1.076,2.143-2.143,3.214-3.216.127-.129.247-.264.393-.421-.154-.165-.275-.3-.4-.431-1.335-1.335-2.66-2.681-4.014-4-.305-.3-.311-.451,0-.758,1.2-1.191,1.183-1.2,2.383,0,1.6,1.6,3.188,3.208,4.805,4.788C673.555,543.468,673.523,543.634,673.206,543.945Z" transform="translate(-97.381 -63.195)" fill="url(#linear-gradient)"/>
    <path id="Path_20204" data-name="Path 20204" d="M676.207,533.453c-4.669,0-9.337-.011-14,.009a4.019,4.019,0,0,1-3.115-1.3c-.848-.9-1.756-1.743-2.615-2.634a1.733,1.733,0,0,0-1.355-.569c-3.967.021-7.935.011-11.9.011-1.078,0-1.434.348-1.434,1.4V553.34c0,1.052.358,1.4,1.436,1.4H676.2c1.1,0,1.441-.344,1.441-1.468V534.86C677.637,533.8,677.28,533.455,676.207,533.453Zm-22.864,15.3c-1.142,1.162-1.144,1.164-2.273.036-1.615-1.615-3.222-3.238-4.852-4.839-.315-.309-.354-.475-.015-.807q2.822-2.766,5.588-5.586c.326-.331.517-.339.807.008.341.408,1.011.779,1.009,1.164s-.64.786-1.016,1.164c-1.067,1.076-2.128,2.156-3.22,3.207-.341.329-.376.519-.013.869,1.34,1.3,2.643,2.63,3.969,3.941a2.874,2.874,0,0,0,.5.329C653.588,548.488,653.469,548.623,653.343,548.75Zm10.406-8.639c-1.677,3.023-3.364,6.039-5.023,9.072-.228.419-.408.425-.79.212-1.419-.792-1.428-.781-.65-2.183,1.5-2.7,3.012-5.389,4.48-8.1.273-.505.49-.562.928-.251a9.418,9.418,0,0,0,1.031.58c.129.069.228.142.234.273C663.879,539.866,663.817,539.991,663.749,540.111Zm9.457,3.834q-2.816,2.771-5.59,5.588c-.285.288-.462.378-.754.017-.344-.429-1.005-.79-1.045-1.224-.03-.35.648-.773,1.024-1.151,1.069-1.076,2.143-2.143,3.214-3.216.127-.129.247-.264.393-.421-.154-.165-.275-.3-.4-.431-1.335-1.335-2.66-2.681-4.014-4-.305-.3-.311-.451,0-.758,1.2-1.191,1.183-1.2,2.383,0,1.6,1.6,3.188,3.208,4.805,4.788C673.555,543.468,673.523,543.634,673.206,543.945Z" transform="translate(-97.381 -63.195)" fill="url(#linear-gradient)"/>
  </g>
</svg>
