<svg xmlns="http://www.w3.org/2000/svg" xmlns:xlink="http://www.w3.org/1999/xlink" width="75.591" height="65" viewBox="0 0 75.591 65">
  <defs>
    <linearGradient id="linear-gradient" y1="-0.194" x2="0.953" y2="1" gradientUnits="objectBoundingBox">
      <stop offset="0" stopColor="#ff3756"/>
      <stop offset="1" stopColor="#ff6a5f"/>
    </linearGradient>
  </defs>
  <g id="Group_6908" data-name="Group 6908" transform="translate(-919.508 -468.69)">
    <path id="Path_20205" data-name="Path 20205" d="M993.9,548.87c-6.241.08-12.482-.135-18.723.123-2.945.121-5.9.021-8.848.021a1.905,1.905,0,0,0-1.5.469c-.714.748-1.575,1.341-2.262,2.111a4.718,4.718,0,0,1-3.8,1.57c-11.454-.034-22.909-.019-34.361-.019-1.3,0-2.607-.013-3.909.007-.934.015-.985.08-.985,1.022v44.763c0,.1,0,.2,0,.3a2.684,2.684,0,0,0,2.6,2.756c.319.027.639.018.958.018h68.5c.2,0,.393,0,.59,0a2.689,2.689,0,0,0,2.941-2.3v-50.6A1.655,1.655,0,0,0,993.9,548.87Zm-46.336,38.865a2.18,2.18,0,0,1-2.639-.395c-1.493-1.387-2.969-2.793-4.45-4.193q-2.275-2.149-4.549-4.3a2.322,2.322,0,0,1-.041-3.756q4.493-4.256,9.013-8.484a2.187,2.187,0,0,1,3.583.528,1.7,1.7,0,0,1,.186.868,2.37,2.37,0,0,1-.94,1.958c-2.311,2.168-4.6,4.359-6.924,6.51-.441.407-.4.606.018.991,2.342,2.169,4.654,4.372,6.979,6.559a2.4,2.4,0,0,1,.852,1.414A2.192,2.192,0,0,1,947.562,587.735ZM963.127,569.1c-.88,2.04-1.792,4.066-2.694,6.1q-2.5,5.622-5.008,11.241a2.2,2.2,0,0,1-2.608,1.5,2.127,2.127,0,0,1-1.687-2.165,2,2,0,0,1,.244-1.008q3.868-8.7,7.742-17.4a2.19,2.19,0,1,1,4.011,1.733Zm15.786,9.591q-4.56,4.347-9.158,8.651a2.182,2.182,0,0,1-3.16-.006,2.209,2.209,0,0,1,.189-3.207q3.52-3.353,7.078-6.667c.416-.386.457-.585.018-.991q-3.542-3.278-7.029-6.614a2.2,2.2,0,0,1,.652-3.835,2.643,2.643,0,0,1,.457-.1,2.165,2.165,0,0,1,1.718.585c3.095,2.91,6.2,5.809,9.273,8.743A2.228,2.228,0,0,1,978.913,578.688Z" transform="translate(0 -68.318)" fill="url(#linear-gradient)"/>
    <path id="Path_20206" data-name="Path 20206" d="M992.645,468.69q-34.982,0-69.962,0a2.7,2.7,0,0,0-2.758,2.734c-.01,2.876.01,5.752-.016,8.627,0,.5.154.591.615.591q19.315-.018,38.631,0a1.194,1.194,0,0,0,.9-.37c.977-.934,1.983-1.838,2.954-2.777a3.5,3.5,0,0,1,2.583-1.008q14.56.009,29.12-.03c.242,0,.486.031.729.047v-5.753A2.955,2.955,0,0,0,992.645,468.69Zm-63.286,7.95a2.2,2.2,0,1,1,2.193-2.224A2.242,2.242,0,0,1,929.359,476.64Zm7.041,0a2.2,2.2,0,1,1,2.231-2.184A2.239,2.239,0,0,1,936.4,476.64Zm7.283,0a2.2,2.2,0,1,1,2.175-2.24A2.239,2.239,0,0,1,943.683,476.64Z" transform="translate(-0.342)" fill="url(#linear-gradient)"/>
  </g>
</svg>
